<?xml version="1.0" encoding="utf-8"?>
<!-- Generator: Adobe Illustrator 16.0.0, SVG Export Plug-In . SVG Version: 6.00 Build 0)  -->
<!DOCTYPE svg PUBLIC "-//W3C//DTD SVG 1.1//EN" "http://www.w3.org/Graphics/SVG/1.1/DTD/svg11.dtd">
<svg version="1.1" id="Calque_1" xmlns="http://www.w3.org/2000/svg" xmlns:xlink="http://www.w3.org/1999/xlink" x="0px" y="0px"
	 width="682.858px" height="323.986px" viewBox="0 0 682.858 323.986" enable-background="new 0 0 682.858 323.986"
	 xml:space="preserve">
<g id="XMLID_1_">
	<g id="XMLID_358_">
		<path id="XMLID_364_" fill="#FF9141" d="M28.486,0C12.779,0,0,12.93,0,28.824C0,44.531,12.779,57.31,28.486,57.31
			c15.894,0,28.824-12.778,28.824-28.486C57.31,12.93,44.379,0,28.486,0z"/>
		<rect id="XMLID_363_" x="8.777" y="84.718" fill="#FF9141" width="39.756" height="160.274"/>
		<path id="XMLID_362_" fill="#FF9141" d="M251.349,80.667c-20.434,0-39.388,10.393-48.214,26.145
			c-8.754-17.353-25.452-26.145-49.685-26.145c-17.728,0-33.759,8.374-42.406,21.744V84.718H71.287v160.273h39.757v-81.487
			c0-31.499,10.86-47.469,32.279-47.469c18.312,0,27.215,12.767,27.215,39.029v89.927h39.755v-81.487
			c0-31.942,10.338-47.469,31.604-47.469c18.506,0,27.889,13.245,27.889,39.367v89.589h39.757V143.925
			C309.542,101.95,289.964,80.667,251.349,80.667z"/>
		<path id="XMLID_359_" fill="#FF9141" d="M477.872,105.777c-15.198-16.193-36.293-25.11-59.397-25.11
			c-18.16,0-36.818,8.904-47.132,22.095V84.718h-39.756v239.268h39.756v-97.037c10.313,13.191,28.971,22.093,47.132,22.093
			c23.104,0,44.199-8.918,59.397-25.109c14.681-15.642,22.765-36.622,22.765-59.077S492.552,121.419,477.872,105.777z
			 M460.88,164.855c0,27.64-19.102,48.482-44.432,48.482c-26.136,0-45.106-20.391-45.106-48.482s18.971-48.482,45.106-48.482
			C441.779,116.373,460.88,137.215,460.88,164.855z"/>
	</g>
	<path id="XMLID_355_" fill="#4F2D7F" d="M659.743,105.765c-15.551-16.185-37.48-25.098-61.747-25.098
		c-47.995,0-84.188,36.193-84.188,84.188c0,47.994,36.192,84.187,84.188,84.187c24.267,0,46.196-8.913,61.747-25.097
		c14.907-15.513,23.115-36.497,23.115-59.09C682.858,142.263,674.65,121.278,659.743,105.765z M643.102,164.855
		c0,28.092-18.97,48.482-45.106,48.482c-25.33,0-44.431-20.843-44.431-48.482s19.101-48.482,44.431-48.482
		C624.132,116.373,643.102,136.762,643.102,164.855z"/>
	<rect id="XMLID_354_" x="518.459" y="17.542" fill="#4F2D7F" width="160.277" height="39.758"/>
</g>
</svg>
