<?xml version="1.0" encoding="UTF-8" standalone="no"?>
<!-- Generator: Adobe Illustrator 16.0.0, SVG Export Plug-In . SVG Version: 6.00 Build 0)  -->
<!DOCTYPE svg  PUBLIC '-//W3C//DTD SVG 1.1//EN'  'http://www.w3.org/Graphics/SVG/1.1/DTD/svg11.dtd'>
<svg id="Layer_1" xmlns="http://www.w3.org/2000/svg" xml:space="preserve" height="31.492px" viewBox="0 0 171.312 31.492" width="171.31px" version="1.1" y="0px" x="0px" xmlns:xlink="http://www.w3.org/1999/xlink" enable-background="new 0 0 171.312 31.492">
		<path d="m40.58 25.267h-3.355c-1.816 0-2.87 0.605-2.87 1.915 0 1.437 1.499 2.011 3.829 2.011 2.97 0 4.664-0.574 4.664-2.201 0-1.055-0.608-1.725-2.268-1.725z" fill="none"/>
		<path d="m3.351 20.764c0 1.087 0.733 1.917 2.106 1.917 1.406 0 3.034-0.799 3.034-2.428v-1.916c-3.64-0.095-5.14 0.768-5.14 2.427z" fill="none"/>
		<path d="m38.409 17.666c1.787 0 2.904-0.924 2.904-2.811 0-1.915-1.118-2.841-2.904-2.841-1.822 0.035-2.812 1.023-2.812 2.841 0.001 1.663 0.99 2.811 2.812 2.811z" fill="none"/>
		<path d="m118.47 20.826c0 1.088 0.736 1.918 2.107 1.918 1.403 0 3.032-0.8 3.032-2.43v-1.913c-3.64-0.096-5.14 0.766-5.14 2.425z" fill="none"/>
		<path d="m64.847 20.251v-1.914c-3.642-0.096-5.142 0.767-5.142 2.427 0 1.086 0.732 1.916 2.105 1.916 1.408-0.003 3.037-0.8 3.037-2.429z" fill="none"/>
		<path d="m168.09 15.335c0-1.693-1.088-3.063-2.907-3.063-1.948 0-3.19 1.37-3.417 3.638h6.292c0.04-0.191 0.04-0.384 0.04-0.575z" fill="none"/>
		<path d="m13.758 24.66v-2.521c-0.222 0.096-0.508 0.156-0.861 0.158-0.604 0-1.086-0.287-1.086-1.342v-6.64c0-3.354-2.298-4.662-5.458-4.662-2.936 0-5.652 1.244-5.876 4.375l3.26 0.541c0.094-1.5 0.955-2.298 2.394-2.298 1.435 0 2.362 0.702 2.362 2.36v1.662c-5.941-0.284-8.493 1.565-8.493 4.822 0 2.523 1.786 4.022 4.371 4.022 1.95 0 3.607-0.638 4.344-2.49 0.351 1.628 1.434 2.364 3.193 2.364 0.766 0.001 1.373-0.129 1.85-0.351zm-5.267-4.407c0 1.629-1.628 2.428-3.034 2.428-1.373 0-2.106-0.83-2.106-1.917 0-1.658 1.5-2.521 5.142-2.427l-0.002 1.916z" fill="#ED1B2F"/>
		<path d="m28.924 14.249c0-3.255-2.075-4.596-4.438-4.596-2.232 0-3.925 0.989-4.724 3.19l-0.414-2.841h-2.714v14.751h3.353v-8.332c0-3.033 1.565-3.928 3.192-3.928 1.692 0 2.395 1.116 2.395 2.873v9.387h3.353v-10.504h-0.003z" fill="#ED1B2F"/>
		<path d="m46.009 26.479c0-2.617-1.821-4.215-5.142-4.215h-3.833c-0.926 0-1.438-0.384-1.438-1.087 0-0.605 0.256-1.086 0.896-1.438 0.415 0.16 1.148 0.225 1.885 0.225 3.477 0 6.289-1.659 6.289-5.076 0-1.087-0.224-1.979-0.67-2.745 1.211-0.288 2.331-1.276 2.555-2.683l-2.78-0.957c-0.256 1.115-0.445 1.786-1.118 2.235-1.084-0.736-2.522-1.086-4.244-1.086-3.674 0-6.162 1.884-6.162 5.235 0 2.235 1.055 3.641 2.937 4.438-1.626 0.445-2.298 1.531-2.298 2.713 0 1.213 0.796 2.268 2.17 2.396-2.49 0.189-3.831 1.402-3.831 3.255 0 2.97 3.225 3.8 6.61 3.8 3.957 0.003 8.174-1.051 8.174-5.01zm-7.6-14.464c1.787 0 2.904 0.926 2.904 2.841 0 1.886-1.118 2.812-2.904 2.812-1.822 0-2.812-1.148-2.812-2.812 0.001-1.818 0.99-2.806 2.812-2.841zm-0.225 17.177c-2.33 0-3.829-0.573-3.829-2.011 0-1.309 1.054-1.915 2.87-1.915h3.355c1.66 0 2.268 0.67 2.268 1.726 0 1.627-1.694 2.2-4.664 2.2z" fill="#ED1B2F"/>
		<path d="m51.979 20.826v-17.4h-3.353v18.199c0 2.395 1.661 3.385 3.607 3.385 0.639 0 1.244-0.096 2.012-0.287l0.095-2.777c-0.319 0.096-0.636 0.16-1.055 0.16-0.764-0.002-1.306-0.355-1.306-1.28z" fill="#ED1B2F"/>
		<path d="m65.069 22.647c0.354 1.627 1.438 2.36 3.194 2.36 0.766 0 1.371-0.127 1.85-0.35v-2.521c-0.223 0.094-0.511 0.158-0.861 0.158-0.608 0-1.085-0.287-1.085-1.342v-6.64c0-3.354-2.297-4.663-5.459-4.663-2.937 0.002-5.653 1.246-5.875 4.375l3.257 0.543c0.093-1.501 0.959-2.298 2.393-2.301 1.437 0 2.364 0.703 2.364 2.363v1.661c-5.942-0.287-8.495 1.565-8.495 4.821 0 2.522 1.79 4.022 4.374 4.022 1.949 0.005 3.609-0.635 4.343-2.486zm-5.364-1.883c0-1.66 1.5-2.522 5.142-2.427v1.914c0 1.629-1.628 2.426-3.036 2.429-1.373 0-2.106-0.83-2.106-1.916z" fill="#ED1B2F"/>
		<rect y="10.002" x="72.99" height="14.751" width="3.352" fill="#ED1B2F"/>
		<path d="m74.65 7.447c1.244 0 2.201-0.861 2.201-2.105 0-1.31-0.957-2.106-2.201-2.106-1.184 0-2.14 0.797-2.14 2.106 0 1.244 0.956 2.105 2.14 2.105z" fill="#ED1B2F"/>
		<path d="m85.28 22.773c-1.659 0-2.841-0.702-3.097-2.361l-2.874 0.989c0.479 2.716 2.459 3.736 5.907 3.736 3.353 0 5.938-1.214 5.938-4.406 0-2.587-1.468-3.929-4.214-4.566l-2.043-0.446c-1.404-0.319-1.82-0.894-1.82-1.853 0-1.086 0.861-1.724 2.269-1.724 1.532 0 2.36 0.573 2.489 1.947l3.193-0.382c-0.255-2.876-2.234-4.057-5.492-4.057-2.873 0-5.684 1.086-5.684 4.565 0 2.171 1.056 3.576 3.704 4.246l2.172 0.513c1.626 0.385 2.168 0.959 2.168 2.043 0.001 1.184-1.114 1.756-2.616 1.756z" fill="#ED1B2F"/>
		<path d="m106.91 22.839c-1.661 0-2.842-0.702-3.098-2.363l-2.876 0.99c0.482 2.714 2.461 3.734 5.907 3.734 3.355 0 5.938-1.211 5.938-4.406 0-2.586-1.467-3.928-4.214-4.564l-2.042-0.447c-1.406-0.32-1.82-0.894-1.82-1.854 0-1.084 0.861-1.722 2.266-1.722 1.532 0 2.364 0.574 2.491 1.947l3.192-0.383c-0.254-2.874-2.235-4.056-5.49-4.056-2.875 0-5.686 1.084-5.686 4.567 0 2.17 1.056 3.575 3.706 4.245l2.169 0.512c1.628 0.383 2.17 0.957 2.17 2.043 0 1.183-1.12 1.757-2.62 1.757z" fill="#4F4F4F"/>
		<path d="m118.85 14.632c0.097-1.499 0.959-2.299 2.396-2.299 1.436 0 2.361 0.703 2.361 2.363v1.661c-5.938-0.289-8.492 1.562-8.492 4.82 0 2.521 1.787 4.021 4.373 4.021 1.949 0 3.61-0.638 4.344-2.488 0.351 1.629 1.437 2.363 3.191 2.363 0.769 0 1.374-0.127 1.852-0.354v-2.521c-0.224 0.094-0.51 0.156-0.86 0.156-0.608 0-1.086-0.285-1.086-1.338v-6.643c0-3.353-2.299-4.661-5.461-4.661-2.937 0-5.651 1.245-5.874 4.375l3.26 0.545zm4.76 5.682c0 1.63-1.629 2.43-3.032 2.43-1.372 0-2.107-0.83-2.107-1.918 0-1.658 1.501-2.521 5.141-2.425v1.913z" fill="#4F4F4F"/>
		<path d="m140.69 15.431v9.387h3.354v-10.504c0-3.259-2.077-4.599-4.439-4.599-2.233 0-3.927 0.989-4.726 3.193l-0.416-2.843h-2.713v14.751h3.353v-8.332c0-3.034 1.565-3.927 3.192-3.927 1.71 0.002 2.41 1.117 2.41 2.874z" fill="#4F4F4F"/>
		<path d="m156.27 21.498c-0.83 0.574-1.531 0.859-2.49 0.859-1.213 0-1.885-0.636-1.885-2.199v-7.473h4.407v-2.619h-4.374v-3.545l-3.387 0.417v3.128h-2.137v2.619h2.137v8.173c0 2.937 1.692 4.343 4.438 4.343 1.502 0 2.843-0.287 3.896-0.896l-0.62-2.807z" fill="#4F4F4F"/>
		<path d="m165.21 25.199c2.844 0 5.364-1.02 6.036-4.021l-2.905-0.863c-0.479 1.693-1.533 2.268-3.002 2.268-2.298 0-3.544-1.817-3.673-4.5h9.388c0.127-0.48 0.256-1.215 0.256-1.979 0-3.736-2.045-6.387-5.971-6.387-4.248 0-6.897 2.907-6.897 7.888-0.01 4.852 2.74 7.594 6.76 7.594zm-0.03-12.928c1.819 0 2.907 1.37 2.907 3.063 0 0.191 0 0.384-0.031 0.574h-6.292c0.22-2.266 1.46-3.637 3.41-3.637z" fill="#4F4F4F"/>
		<polygon points="170.1 3.233 165.73 3.233 163.39 7.958 166.4 7.958" fill="#4F4F4F"/>
</svg>
