<?xml version="1.0" encoding="utf-8"?>
<!-- Generator: Adobe Illustrator 15.0.0, SVG Export Plug-In . SVG Version: 6.00 Build 0)  -->
<!DOCTYPE svg PUBLIC "-//W3C//DTD SVG 1.1//EN" "http://www.w3.org/Graphics/SVG/1.1/DTD/svg11.dtd">
<svg version="1.1" id="Layer_1" xmlns="http://www.w3.org/2000/svg" xmlns:xlink="http://www.w3.org/1999/xlink" x="0px" y="0px"
	 width="225.58px" height="318.407px" viewBox="200.21 142 225.58 318.407" enable-background="new 200.21 142 225.58 318.407"
	 xml:space="preserve">
<title>HTML5 Logo</title>
<g>
	
		<image overflow="visible" opacity="0.75" width="2840" height="3872" xlink:href="53CC72FF.png"  transform="matrix(0.09 0 0 0.09 192.21 134)">
	</image>
	<g>
		<g>
			<polygon fill="#E44D26" points="220.739,434.833 200.21,204.575 425.79,204.575 405.239,434.797 312.862,460.407 			"/>
			<polygon fill="#F16529" points="313,440.833 387.646,420.137 405.207,223.401 313,223.401 			"/>
			<polygon fill="#EBEBEB" points="313,308.801 275.631,308.801 273.05,279.883 313,279.883 313,251.642 312.903,251.642 
				242.187,251.642 242.863,259.219 249.804,337.042 313,337.042 			"/>
			<polygon fill="#EBEBEB" points="313,382.143 312.876,382.176 281.425,373.684 279.414,351.163 264.132,351.163 251.065,351.163 
				255.022,395.502 312.87,411.563 313,411.526 			"/>
			<path d="M221.198,142h14.352v14.179h13.128V142h14.353v42.938h-14.353V170.56H235.55v14.378h-14.351L221.198,142L221.198,142z"/>
			<path d="M281.901,156.239h-12.633V142h39.627v14.239h-12.642v28.699h-14.353V156.239L281.901,156.239z"/>
			<path d="M315.185,142h14.963l9.207,15.087L348.549,142h14.972v42.938h-14.293v-21.281l-9.873,15.266h-0.248l-9.881-15.266v21.281
				h-14.041V142L315.185,142z"/>
			<path d="M370.662,142h14.354v28.745h20.183v14.192h-34.537V142z"/>
			<polygon fill="#FFFFFF" points="312.903,308.801 312.903,337.042 347.677,337.042 344.399,373.667 312.903,382.168 
				312.903,411.549 370.796,395.502 371.222,390.733 377.858,316.383 378.547,308.801 370.937,308.801 			"/>
			<polygon fill="#FFFFFF" points="312.903,251.642 312.903,269.182 312.903,279.813 312.903,279.883 381.026,279.883 
				381.026,279.883 381.115,279.883 381.683,273.536 382.969,259.219 383.646,251.642 			"/>
		</g>
	</g>
</g>
</svg>
