<?xml version="1.0" encoding="utf-8"?>
<!-- Generator: Adobe Illustrator 16.0.0, SVG Export Plug-In . SVG Version: 6.00 Build 0)  -->
<!DOCTYPE svg PUBLIC "-//W3C//DTD SVG 1.1//EN" "http://www.w3.org/Graphics/SVG/1.1/DTD/svg11.dtd">
<svg version="1.1" id="Layer_1" xmlns="http://www.w3.org/2000/svg" xmlns:xlink="http://www.w3.org/1999/xlink" x="0px" y="0px"
	 width="186.746px" height="44.298px" viewBox="0 0 186.746 44.298" enable-background="new 0 0 186.746 44.298"
	 xml:space="preserve">
<g>
	<g>
		<path fill="#AF1101" d="M0.379,0.128C0.35,0.247,0.32,0.367,0.291,0.487C1.434,0.851,2.56,1.306,3.73,1.564
			c2.56,0.564,3.375,1.995,3.321,4.667c-0.181,9.315-0.027,18.637-0.092,27.956C6.9,42.451,8.233,40.689,0,43.771
			c7.265,0,14.025,0.07,20.79-0.029c2.978-0.044,6.855,1.327,8.689-0.599c1.698-1.781,0.355-5.604,0.495-8.524
			c0.012-0.247-0.026-0.336-0.474-0.219c-0.32,0.792-0.762,1.685-1.04,2.626c-0.723,2.434-2.465,3.566-4.847,3.665
			c-2.85,0.12-5.706,0.073-8.562,0.036c-1.819-0.024-2.688-0.929-2.679-2.852c0.044-10.746,0.03-21.492,0.009-32.24
			c-0.003-2.073,0.906-3.25,2.945-3.75c1.428-0.351,3.007-0.507,4.281-1.757C13.036,0.128,6.708,0.128,0.379,0.128z M53.676,0.189
			c-6.865,0-13.208,0-19.551,0c1.04,0.677,2.119,1.096,3.232,1.336c2.646,0.569,3.511,2.026,3.452,4.812
			C40.607,15.554,40.77,24.778,40.717,34c-0.05,8.557,1.303,6.608-6.619,9.678c6.295,0,12.438,0,19.174,0
			c-1.647-0.935-2.927-1.167-4.183-1.514c-1.748-0.486-2.957-1.422-2.951-3.503c0.03-11.066,0.015-22.132,0.009-33.197
			c-0.003-1.963,0.936-3.099,2.856-3.546C50.449,1.579,51.918,1.257,53.676,0.189z M107.691,0.14
			c-0.029,0.117-0.062,0.234-0.089,0.353c1.145,0.364,2.272,0.816,3.443,1.074c2.554,0.561,3.371,1.982,3.321,4.653
			c-0.178,9.638-0.077,19.281-0.077,28.922c0,6.366,0,6.364-6.293,8.214c-0.068,0.019-0.083,0.206-0.101,0.249
			c6.109,0,12.224,0,18.694,0c-1.484-0.935-2.812-1.11-4.079-1.479c-1.784-0.519-2.83-1.564-2.824-3.607
			c0.045-10.982,0.03-21.965,0.013-32.947c-0.007-2.093,0.975-3.227,3.001-3.691c1.41-0.325,2.877-0.609,4.494-1.741
			C120.387,0.14,114.038,0.14,107.691,0.14z"/>
	</g>
	<path fill-rule="evenodd" clip-rule="evenodd" fill="#AF1101" d="M0.379,0.128c6.328,0,12.657,0,19.228,0
		c-1.274,1.25-2.853,1.406-4.281,1.757c-2.039,0.499-2.948,1.677-2.945,3.75c0.021,10.749,0.035,21.494-0.009,32.24
		c-0.009,1.923,0.859,2.828,2.679,2.852c2.856,0.037,5.712,0.084,8.562-0.036c2.382-0.099,4.124-1.231,4.847-3.665
		c0.278-0.942,0.72-1.834,1.04-2.626c0.447-0.117,0.486-0.028,0.474,0.219c-0.139,2.92,1.203,6.743-0.495,8.524
		c-1.834,1.926-5.712,0.554-8.689,0.599C14.025,43.84,7.265,43.771,0,43.771c8.233-3.081,6.9-1.32,6.959-9.583
		c0.065-9.319-0.089-18.641,0.092-27.956C7.104,3.559,6.29,2.128,3.73,1.564C2.56,1.306,1.434,0.851,0.291,0.487
		C0.32,0.367,0.35,0.247,0.379,0.128z"/>
	<path fill-rule="evenodd" clip-rule="evenodd" fill="#AF1101" d="M53.676,0.189c-1.757,1.068-3.227,1.39-4.672,1.728
		c-1.92,0.447-2.859,1.583-2.856,3.546c0.006,11.065,0.021,22.131-0.009,33.197c-0.006,2.081,1.203,3.018,2.951,3.503
		c1.256,0.347,2.536,0.579,4.183,1.514c-6.737,0-12.879,0-19.174,0c7.922-3.069,6.568-1.121,6.619-9.678
		c0.053-9.221-0.11-18.446,0.092-27.663c0.059-2.785-0.806-4.243-3.452-4.812c-1.114-0.24-2.192-0.659-3.232-1.336
		C40.468,0.189,46.811,0.189,53.676,0.189z"/>
	<path fill-rule="evenodd" clip-rule="evenodd" fill="#AF1101" d="M107.691,0.14c6.347,0,12.695,0,19.504,0
		c-1.617,1.132-3.084,1.416-4.494,1.741c-2.026,0.465-3.008,1.598-3.001,3.691c0.018,10.981,0.032,21.964-0.013,32.947
		c-0.006,2.043,1.04,3.089,2.824,3.607c1.268,0.369,2.595,0.543,4.079,1.479c-6.471,0-12.585,0-18.694,0
		c0.018-0.043,0.032-0.23,0.101-0.249c6.293-1.85,6.293-1.849,6.293-8.214c0-9.641-0.101-19.284,0.077-28.922
		c0.05-2.671-0.768-4.092-3.321-4.653c-1.171-0.258-2.299-0.71-3.443-1.074C107.63,0.374,107.662,0.257,107.691,0.14z"/>
	<g>
		<path fill-rule="evenodd" clip-rule="evenodd" fill="#AF1101" d="M160.917,43.279c-0.112,0.046-0.166,0.229-0.275,0.39
			c5.339,0,10.646,0,15.957,0c-2.782-1.246-5.241-2.529-6.443-5.734c-4.533-12.075-9.505-23.986-13.244-36.348
			c-0.402-1.332-1.176-1.625-2.414-1.582c-1.232,0.044-2.143,0.061-2.613,1.632c-3.537,11.818-8.56,23.078-13.06,34.538
			c-1.419,3.614-3.235,6.355-7.229,7.149c-0.064,0.013-0.086,0.242-0.112,0.315c4.791,0,9.597,0,14.535,0
			c-0.545-0.727-1.241-0.758-1.837-0.989c-3.102-1.202-3.282-1.473-2.204-4.619c1.141-3.327,2.462-6.592,3.617-9.915
			c0.43-1.234,1.123-1.64,2.406-1.612c3.525,0.08,7.051,0.087,10.576,0c1.481-0.037,2.281,0.415,2.741,1.896
			c0.812,2.639,1.846,5.208,2.77,7.816C165.865,41.236,165.855,41.237,160.917,43.279z M157.718,23.138
			c-2.768,0.004-5.538-0.018-8.302,0.012c-1.235,0.015-1.707-0.364-1.203-1.644c1.671-4.237,3.301-8.491,5.155-13.28
			c1.926,4.97,3.642,9.393,5.359,13.815C159.143,23.11,158.438,23.137,157.718,23.138z"/>
	</g>
	<g>
		<path fill-rule="evenodd" clip-rule="evenodd" fill="#AF1101" d="M86.331,1.048c-9.362-1.859-18.947-0.127-28.466-0.404
			c0.883,0.582,1.792,0.939,2.717,1.246c3.783,1.25,3.836,1.312,3.836,5.319c0.003,8.896-0.189,17.797,0.077,26.686
			c0.148,4.866-0.258,8.848-6.423,9.583c7.214,0.112,14.215,0.521,21.219,0.804c2.631,0.108,5.161-0.321,7.674-1.05
			c9.901-2.873,16.345-10.784,16.499-20.988C103.627,11.495,96.938,3.153,86.331,1.048z M88.404,38.74
			c-5.428,2.412-10.837,2.348-16.416,1.891c-1.763-0.144-2.178-1.564-2.175-3.148c0.018-5.198,0.006-10.396,0.006-15.594
			c0-4.863,0.146-9.734-0.06-14.588c-0.106-2.5,0.798-3.468,3.174-3.652c6.82-0.526,13.32-0.232,18.908,4.616
			C100.641,15.9,100.854,33.207,88.404,38.74z"/>
	</g>
	<g>
		<path fill="#AF1101" d="M176.942,1.506h-2.912v6.251h-1.671V1.506h-2.909V0.051h7.492V1.506z M185.119,4.183l0.214-2.206h-0.086
			l-0.836,1.821l-1.86,2.997h-0.708l-1.905-2.976l-0.771-1.841h-0.085l0.278,2.184v3.597h-1.562V0.051h1.668l2.249,3.597
			l0.598,1.242h0.024l0.64-1.285l2.077-3.554h1.691v7.706h-1.627V4.183z"/>
	</g>
</g>
</svg>
