<?xml version="1.0" encoding="utf-8"?>
<!-- Generator: Adobe Illustrator 16.0.0, SVG Export Plug-In . SVG Version: 6.00 Build 0)  -->
<!DOCTYPE svg PUBLIC "-//W3C//DTD SVG 1.1//EN" "http://www.w3.org/Graphics/SVG/1.1/DTD/svg11.dtd">
<svg version="1.1" id="Layer_1" xmlns="http://www.w3.org/2000/svg" xmlns:xlink="http://www.w3.org/1999/xlink" x="0px" y="0px"
	 width="127.152px" height="43.345px" viewBox="0 0 127.152 43.345" enable-background="new 0 0 127.152 43.345"
	 xml:space="preserve">
<g>
	<defs>
		<rect id="SVGID_1_" width="127.152" height="43.345"/>
	</defs>
	<clipPath id="SVGID_2_">
		<use xlink:href="#SVGID_1_"  overflow="visible"/>
	</clipPath>
	<g clip-path="url(#SVGID_2_)">
		<defs>
			<polyline id="SVGID_3_" points="8.792,9.686 8.792,34.626 115.553,34.626 115.553,9.686 			"/>
		</defs>
		<clipPath id="SVGID_4_">
			<use xlink:href="#SVGID_3_"  overflow="visible"/>
		</clipPath>
		<path clip-path="url(#SVGID_4_)" fill-rule="evenodd" clip-rule="evenodd" fill="#FFFFFF" d="M95.867,12.041
			c0.833,0,1.531,0.686,1.531,1.531s-0.698,1.545-1.531,1.545s-1.517-0.699-1.517-1.545S95.034,12.041,95.867,12.041
			 M110.386,28.293c-0.066,0.673-0.376,1.115-1.638,1.466c-0.994,0.321-0.874,0.846,0.134,0.886c2.714-0.39,3.56-0.322,5.991-0.054
			c0.953-0.014,0.792-0.632,0.201-0.913c-1.424-0.552-1.652-0.564-1.934-1.975l-0.108-14.237c0-0.82,0.31-1.773-0.564-1.56
			c-1.625,0.646-1.759,0.699-3.236,1.209c-0.78,0.336-0.484,0.712,0.08,0.9c0.792,0.323,0.859,0.806,0.9,1.384L110.386,28.293z
			 M102.032,28.214c-0.067,0.671-0.376,1.114-1.639,1.464c-0.993,0.321-0.873,0.846,0.135,0.886c2.713-0.389,3.559-0.322,5.99-0.054
			c0.954-0.014,0.792-0.631,0.202-0.913c-1.424-0.551-1.653-0.564-1.935-1.975l-0.107-14.237c0-0.819,0.309-1.773-0.564-1.559
			c-1.626,0.646-1.76,0.698-3.237,1.209c-0.779,0.336-0.484,0.712,0.08,0.9c0.793,0.322,0.86,0.806,0.9,1.383L102.032,28.214z
			 M94.417,22.612c-0.066-0.726-0.161-1.29-0.994-1.532c-0.59-0.053-0.872-0.591-0.026-0.913c1.692-0.551,1.934-0.645,3.236-1.691
			c0.403-0.215,0.874-0.04,0.646,0.685c-0.095,0.552-0.082,0.807-0.122,1.397l0.014,7.414c0.067,1.209,1.007,1.41,1.612,1.651
			c0.604,0.242,0.658,0.954-0.054,0.968c-2.632-0.362-3.211-0.403-5.749,0.107c-0.846,0.014-1.034-0.631,0.013-1.008
			c1.048-0.376,1.397-0.55,1.451-1.45L94.417,22.612z M71.113,21.242c0.59-6.327,4.647-8.973,10.355-9.442
			c6.017,0.04,6.878,0.442,6.796,3.801c0.041,1.209-0.765,1.491-1.33,0.121c-0.644-1.236-1.182-1.948-2.713-2.579
			c-5.184-1.168-9.025,2.163-9.254,7.831c-0.362,7.992,8.583,10.329,10.436,7.347c0.39-0.779,0.39-2.847,0.336-4.553
			c-0.322-1.129-1.397-1.021-2.444-1.062c-1.128,0.081-1.531-1.195-0.013-1.182c1.464,0,4.284,0.134,7.91-0.202
			c1.075,0.04,1.156,1.021-0.16,1.169c-0.565,0.107-1.76,0.093-1.921,1.034c-0.134,4.862,0.994,5.333-2.673,6.662
			c-4.674,1.102-9.711,0.591-12.559-2.162C72.604,26.897,71.005,24.305,71.113,21.242z M59.038,24.492
			c0.524-5.265,4.89-6.501,7.133-6.514c2.659,0.08,3.505,0.953,3.532,1.84c0.027,0.886-0.604,1.357-1.289,1.169
			c-1.464-0.377-1.182-1.922-3.13-2.042c-2.203,0.322-3.533,2.794-3.157,5.749c0.377,2.955,3.238,5.157,6.73,3.358
			c0.846-0.189,0.913,0.51,0.228,0.993C62.665,32.995,58.769,27.367,59.038,24.492z M39.212,15.654
			c-0.134-1.812-0.698-1.263-2.082-1.812c-1.115-0.216-1.209-1.021-0.107-1.062c1.988,0.148,2.982,0.175,4.634-0.08
			c0.752,0.121,1.074,0.431,1.356,1.155c1.384,2.928,3.398,7.321,4.782,10.249c0.242,0.522,0.376,0.631,0.685-0.041l4.083-10.437
			c0.457-0.887,0.954-1.102,2.378-0.967c2.458,0.04,3.062-0.026,4.271-0.162c1.048,0.041,0.98,0.848-0.054,1.129
			c-1.585,0.014-2.418,0.552-2.659,1.732l0.228,11.982c0.255,1.785,1.182,1.84,2.848,2.27c0.752,0.335,0.591,0.859-0.054,1.034
			c-3.479-0.403-4.688-0.376-8.14-0.04c-0.994,0.094-1.061-0.766,0.014-0.994c1.276-0.282,1.598-0.511,1.88-1.182l-0.255-11.553
			c-0.04-0.455-0.322-0.455-0.497,0.081l-4.876,12.184c-0.456,1.034-0.658,1.034-1.155,0.228L40.73,16.891
			c-0.175-0.431-0.39-0.296-0.416-0.027l0.053,11.014c0.161,1.276,1.048,1.357,2.848,1.922c0.51,0.16,0.537,0.591,0.121,0.858
			c-3.519-0.295-4.084-0.295-7.347,0.121c-0.511,0-0.753-0.752,0.04-0.86c1.732-0.495,2.203-0.522,2.458-1.517L39.212,15.654z"/>
		<path clip-path="url(#SVGID_4_)" fill-rule="evenodd" clip-rule="evenodd" fill="#ED1B2F" d="M9.317,21.153
			c-0.898-3.197-0.373-6.156-0.373-9.733c3.2-1.591,6.368-1.734,9.802-1.734c2.968,0,7.179,0.383,9.714,1.729
			c0.26,3.373,0.409,6.342-0.456,10.173c-0.867,3.832-3.386,9.126-9.132,13.038C12.601,30.517,10.551,25.546,9.317,21.153"/>
		<path clip-path="url(#SVGID_4_)" fill-rule="evenodd" clip-rule="evenodd" fill="#FFFFFF" d="M23.787,15.397l-0.256-0.587
			c0.543-0.136,1.005-0.189,1.696-0.188c0.691,0,1.157,0.051,1.703,0.188l-0.276,0.591c-0.411-0.111-0.883-0.156-1.444-0.158
			C24.649,15.242,24.198,15.279,23.787,15.397 M26.364,14.833c0.098,0,0.178,0.075,0.178,0.168c0,0.092-0.08,0.168-0.178,0.168
			c-0.099,0-0.179-0.076-0.179-0.168C26.185,14.908,26.265,14.833,26.364,14.833z M25.795,14.783c0.098,0,0.178,0.076,0.178,0.168
			c0,0.093-0.08,0.168-0.178,0.168c-0.099,0-0.179-0.075-0.179-0.168C25.616,14.859,25.696,14.783,25.795,14.783z M25.226,14.758
			c0.098,0,0.179,0.076,0.179,0.168c0,0.094-0.081,0.168-0.179,0.168s-0.178-0.074-0.178-0.168
			C25.048,14.834,25.128,14.758,25.226,14.758z M24.65,14.777c0.098,0,0.178,0.076,0.178,0.168c0,0.093-0.08,0.168-0.178,0.168
			c-0.099,0-0.179-0.075-0.179-0.168C24.471,14.854,24.551,14.777,24.65,14.777z M24.088,14.827c0.099,0,0.179,0.075,0.179,0.168
			c0,0.092-0.08,0.167-0.179,0.167c-0.098,0-0.179-0.075-0.179-0.167C23.909,14.902,23.99,14.827,24.088,14.827z M26.273,13.946
			l0.213,0.408l-0.514-0.049L26.273,13.946z M25.219,13.516l0.359,0.766h-0.71L25.219,13.516z M24.175,13.955l-0.231,0.399
			l0.522-0.051L24.175,13.955z M25.228,14.477c-0.694,0-1.17,0.081-1.739,0.194c-0.037-0.003-0.694-1.501-0.694-1.519
			c0.09-0.014,0.348,0.04,0.374,0.324c0.077-0.179,0.283-0.292,0.399-0.268c-0.49,0.683,0.153,1.053,0.566,0.509
			c0.669,0.26,1.057-0.574,0.475-0.812c0.079-0.195,0.323-0.09,0.412-0.041c-0.166-0.363,0.015-0.711,0.207-0.827
			c0.19,0.116,0.379,0.464,0.216,0.827c0.085-0.049,0.305-0.154,0.417,0.041c-0.607,0.237-0.206,1.071,0.453,0.812
			c0.425,0.544,1.069,0.174,0.572-0.509c0.117-0.024,0.329,0.089,0.389,0.268c0.039-0.284,0.3-0.338,0.386-0.324
			c0,0.018-0.659,1.516-0.667,1.519C26.41,14.558,25.912,14.477,25.228,14.477z M25.225,15.396c-0.76,0-1.38,0.103-1.38,0.198
			c0,0.095,0.62,0.173,1.38,0.173c0.76,0,1.38-0.078,1.38-0.173C26.605,15.498,25.985,15.396,25.225,15.396z"/>
		<path clip-path="url(#SVGID_4_)" fill-rule="evenodd" clip-rule="evenodd" fill="#FFFFFF" d="M11.021,15.397l-0.255-0.587
			c0.543-0.136,1.005-0.189,1.696-0.188c0.691,0,1.156,0.051,1.702,0.188l-0.275,0.591c-0.411-0.111-0.884-0.156-1.444-0.158
			C11.884,15.242,11.433,15.279,11.021,15.397 M13.598,14.833c0.098,0,0.179,0.075,0.179,0.168c0,0.092-0.081,0.168-0.179,0.168
			s-0.178-0.076-0.178-0.168C13.419,14.908,13.5,14.833,13.598,14.833z M13.029,14.783c0.098,0,0.179,0.076,0.179,0.168
			c0,0.093-0.081,0.168-0.179,0.168c-0.098,0-0.178-0.075-0.178-0.168C12.851,14.859,12.931,14.783,13.029,14.783z M12.46,14.758
			c0.098,0,0.179,0.076,0.179,0.168c0,0.094-0.081,0.168-0.179,0.168c-0.099,0-0.179-0.074-0.179-0.168
			C12.282,14.834,12.362,14.758,12.46,14.758z M11.884,14.777c0.099,0,0.179,0.076,0.179,0.168c0,0.093-0.08,0.168-0.179,0.168
			c-0.098,0-0.178-0.075-0.178-0.168C11.706,14.854,11.786,14.777,11.884,14.777z M11.322,14.827c0.099,0,0.179,0.075,0.179,0.168
			c0,0.092-0.08,0.167-0.179,0.167c-0.098,0-0.178-0.075-0.178-0.167C11.144,14.902,11.224,14.827,11.322,14.827z M13.507,13.946
			l0.214,0.408l-0.514-0.049L13.507,13.946z M12.454,13.516l0.359,0.766h-0.71L12.454,13.516z M11.409,13.955l-0.231,0.399
			l0.523-0.051L11.409,13.955z M12.463,14.477c-0.694,0-1.171,0.081-1.739,0.194c-0.038-0.003-0.694-1.501-0.694-1.519
			c0.09-0.014,0.347,0.04,0.373,0.324c0.078-0.179,0.283-0.292,0.399-0.268c-0.489,0.683,0.154,1.053,0.566,0.509
			c0.67,0.26,1.057-0.574,0.476-0.812c0.078-0.195,0.322-0.09,0.412-0.041c-0.167-0.363,0.014-0.711,0.207-0.827
			c0.189,0.116,0.379,0.464,0.215,0.827c0.086-0.049,0.306-0.154,0.418,0.041c-0.607,0.237-0.207,1.071,0.452,0.812
			c0.426,0.544,1.07,0.174,0.573-0.509c0.116-0.024,0.329,0.089,0.389,0.268c0.039-0.284,0.3-0.338,0.385-0.324
			c0,0.018-0.659,1.516-0.667,1.519C13.645,14.558,13.146,14.477,12.463,14.477z M12.459,15.396c-0.76,0-1.381,0.103-1.381,0.198
			c0,0.095,0.621,0.173,1.381,0.173c0.76,0,1.38-0.078,1.38-0.173C13.84,15.498,13.22,15.396,12.459,15.396z"/>
		<path clip-path="url(#SVGID_4_)" fill-rule="evenodd" clip-rule="evenodd" fill="#FFFFFF" d="M12.375,16.695l-2.868,3.032
			c0.693,3.222,2.396,9.79,9.404,14.345c6.945-4.78,8.586-11.005,9.006-14.272l-2.782-3.113l-3.326,3.371l-3.063-3.342l-3.053,3.299
			L12.375,16.695"/>
		<path clip-path="url(#SVGID_4_)" fill-rule="evenodd" clip-rule="evenodd" fill="#ED1B2F" d="M12.034,23.651
			c-0.321-0.817,0.086-1.184,0.091-1.307c-0.053-0.073-0.188-0.156-0.326-0.157c0.063-0.115,0.199-0.24,0.241-0.294
			c0.042-0.055-0.169-0.182-0.394-0.25c0.132-0.109,0.252-0.14,0.412-0.193c0.134-0.274,0.483-0.438,0.814-0.41
			c0.302,0.025,1.087,0.231,0.869,1.194c0.473,0.965,2.251-0.166,2.74-0.465c-0.035,0.226-0.136,0.604-0.356,0.877
			c0.193-0.028,0.45-0.132,0.63-0.206c-0.144,0.56-0.602,1.079-1.036,1.256c0.222,0.485,1.309,0.572,2.311,0.266
			c-0.152,0.259-0.409,0.419-0.61,0.572c0.321,0.283,0.484,0.552,0.731,0.987c-0.402-0.236-1.34-0.582-1.748-0.637
			c-0.572-0.079-1.305-0.244-1.842,0.06c0.018,0.161,0.147,0.282,0.308,0.396c-0.313,0.185-0.585,0.147-0.847-0.02
			c-0.206,0.155-0.281,0.254-0.735,0.205c0,0,0.178-0.195,0.158-0.323c-0.002,0-0.484,0.062-0.618-0.207
			c0.109-0.038,0.333-0.134,0.34-0.232C13.185,24.445,12.354,24.468,12.034,23.651 M12.61,21.313c0.085,0,0.141,0.062,0.141,0.146
			c0,0.073-0.057,0.137-0.141,0.137c-0.079-0.001-0.141-0.063-0.141-0.137C12.47,21.374,12.532,21.313,12.61,21.313z M19.525,23.651
			c-0.321-0.817,0.085-1.184,0.091-1.307c-0.053-0.073-0.189-0.156-0.327-0.157c0.064-0.115,0.2-0.24,0.242-0.294
			c0.041-0.055-0.169-0.182-0.395-0.25c0.132-0.109,0.253-0.14,0.413-0.193c0.134-0.274,0.482-0.438,0.814-0.41
			c0.302,0.025,1.086,0.231,0.869,1.194c0.472,0.965,2.251-0.166,2.739-0.465c-0.034,0.226-0.136,0.604-0.355,0.877
			c0.193-0.028,0.449-0.132,0.63-0.206c-0.145,0.56-0.603,1.079-1.037,1.256c0.223,0.485,1.31,0.572,2.312,0.266
			c-0.152,0.259-0.41,0.419-0.61,0.572c0.321,0.283,0.483,0.552,0.731,0.987c-0.402-0.236-1.34-0.582-1.748-0.637
			c-0.572-0.079-1.305-0.244-1.843,0.06c0.018,0.161,0.148,0.282,0.308,0.396c-0.313,0.185-0.585,0.147-0.847-0.02
			c-0.205,0.155-0.281,0.254-0.735,0.205c0,0,0.179-0.195,0.159-0.323c-0.002,0-0.485,0.062-0.618-0.207
			c0.109-0.038,0.333-0.134,0.339-0.232C20.677,24.445,19.847,24.468,19.525,23.651z M20.103,21.313c0.085,0,0.14,0.062,0.14,0.146
			c0,0.073-0.056,0.137-0.141,0.137c-0.079-0.001-0.14-0.063-0.14-0.137C19.961,21.374,20.023,21.313,20.103,21.313z M15.896,29.14
			c-0.321-0.817,0.086-1.185,0.092-1.307c-0.054-0.074-0.189-0.156-0.327-0.158c0.063-0.114,0.199-0.239,0.241-0.292
			c0.041-0.057-0.169-0.183-0.395-0.252c0.133-0.108,0.253-0.139,0.413-0.192c0.134-0.275,0.483-0.439,0.814-0.41
			c0.302,0.025,1.087,0.23,0.869,1.194c0.472,0.963,2.251-0.167,2.739-0.465c-0.034,0.226-0.135,0.604-0.355,0.878
			c0.194-0.029,0.45-0.134,0.63-0.207c-0.145,0.561-0.602,1.079-1.036,1.255c0.223,0.484,1.309,0.571,2.311,0.266
			c-0.152,0.259-0.409,0.42-0.61,0.573c0.321,0.283,0.484,0.551,0.731,0.986c-0.402-0.234-1.34-0.581-1.748-0.637
			c-0.573-0.078-1.305-0.244-1.842,0.061c0.018,0.161,0.148,0.28,0.308,0.396c-0.313,0.186-0.585,0.148-0.847-0.019
			c-0.206,0.156-0.282,0.255-0.736,0.204c0,0,0.179-0.193,0.16-0.321c-0.003,0-0.485,0.061-0.619-0.21
			c0.109-0.036,0.333-0.133,0.339-0.231C17.046,29.934,16.216,29.955,15.896,29.14z M16.473,26.802c0.085,0,0.141,0.061,0.141,0.146
			c0,0.072-0.057,0.134-0.141,0.134c-0.079,0-0.141-0.062-0.141-0.135C16.332,26.862,16.394,26.802,16.473,26.802z"/>
		<path clip-path="url(#SVGID_4_)" fill-rule="evenodd" clip-rule="evenodd" fill="#FFFFFF" d="M21.268,11.316l0.229,0.34v3.947
			l-0.229-0.295V11.316 M16.288,11.343l-0.257,0.259v4.037l0.257-0.31V11.343z M16.108,15.735l0.25-0.312
			c0.802,0.333,1.74-0.322,2.285-0.009c-0.1,0.07-0.175,0.164-0.223,0.32H16.108z M18.545,15.735
			c0.029-0.115,0.104-0.202,0.229-0.288c0.13,0.076,0.194,0.147,0.237,0.288H18.545z M21.445,15.735h-2.311
			c-0.049-0.156-0.124-0.25-0.224-0.32c0.545-0.313,1.484,0.342,2.286,0.009L21.445,15.735z M16.399,11.326v3.998
			c0.885,0.337,1.622-0.359,2.3-0.005v-3.952C18.099,10.94,17.334,11.627,16.399,11.326z M21.15,11.319
			c-0.935,0.301-1.708-0.378-2.308,0.051l0.009,3.942c0.678-0.354,1.414,0.341,2.299,0.005V11.319z M19.066,11.98L19.066,11.98
			c-0.003,0.109,0.027,0.198,0.086,0.259c0.051,0.053,0.122,0.081,0.201,0.081c0.078,0,0.156-0.036,0.207-0.095
			c0.039-0.045,0.058-0.098,0.051-0.146l-0.003-0.016H19.46l-0.001,0.018c-0.004,0.063-0.042,0.095-0.115,0.095
			c-0.079,0-0.126-0.086-0.126-0.169c0-0.11,0.059-0.19,0.14-0.19c0.08,0,0.101,0.059,0.101,0.089v0.019h0.153l-0.001-0.019
			c-0.007-0.14-0.105-0.226-0.258-0.226C19.179,11.681,19.072,11.793,19.066,11.98z M19.756,11.812
			c-0.056,0.059-0.089,0.144-0.089,0.233c0,0.009,0.001,0.017,0.001,0.025c0.008,0.133,0.088,0.289,0.292,0.295
			c0.262-0.008,0.293-0.235,0.296-0.306c0.007-0.097-0.018-0.181-0.074-0.24c-0.053-0.057-0.13-0.088-0.216-0.088
			C19.884,11.729,19.811,11.756,19.756,11.812z M19.668,12.071 M19.966,11.879c0.093,0,0.138,0.058,0.138,0.175
			c0,0.082-0.036,0.169-0.138,0.169c-0.126,0-0.145-0.121-0.145-0.193C19.831,11.929,19.878,11.879,19.966,11.879z M20.836,11.788
			h-0.135c0,0,0,0.259,0,0.346c-0.048-0.079-0.211-0.346-0.211-0.346h-0.145v0.61h0.158c0,0,0-0.256,0-0.344
			c0.048,0.08,0.205,0.344,0.205,0.344h0.145v-0.61H20.836z M20.016,12.863h-0.425v0.611h0.155c0,0,0-0.211,0-0.241
			c0.03,0,0.256,0,0.256,0v-0.135c0,0-0.226,0-0.256,0c0-0.022,0-0.075,0-0.097c0.031,0,0.287,0,0.287,0v-0.139H20.016z
			 M20.294,12.919h-0.142v0.61h0.159v-0.61H20.294z M19.403,14.11v0.611l0.3-0.001c0.14-0.016,0.215-0.178,0.215-0.322
			c0-0.126-0.059-0.268-0.224-0.288H19.42H19.403z M19.649,14.248c0.076,0,0.111,0.085,0.111,0.168c0,0.084-0.037,0.173-0.105,0.173
			c0,0-0.075,0-0.101,0c0-0.03,0-0.312,0-0.341C19.579,14.248,19.649,14.248,19.649,14.248z M20.077,14.21
			c-0.057,0.059-0.089,0.145-0.089,0.233c0,0.008,0,0.018,0.001,0.025c0.007,0.133,0.088,0.289,0.292,0.295
			c0.263-0.007,0.293-0.237,0.296-0.306c0.007-0.099-0.019-0.182-0.074-0.24c-0.054-0.057-0.13-0.088-0.216-0.088
			C20.205,14.126,20.132,14.153,20.077,14.21z M19.963,14.469 M20.287,14.275c0.093,0,0.138,0.058,0.138,0.175
			c0,0.082-0.036,0.17-0.138,0.17c-0.121,0-0.146-0.104-0.146-0.194C20.151,14.324,20.199,14.275,20.287,14.275z M17.245,11.749
			h-0.141v0.611h0.158v-0.611H17.245z M17.9,11.672h-0.135c0,0,0,0.259,0,0.346c-0.048-0.079-0.211-0.346-0.211-0.346h-0.145v0.611
			h0.158c0,0,0-0.256,0-0.345c0.048,0.081,0.205,0.345,0.205,0.345h0.145v-0.611H17.9z M16.612,12.96v0.61h0.3
			c0.14-0.017,0.215-0.178,0.215-0.321c0-0.127-0.058-0.27-0.223-0.289H16.63H16.612z M16.859,13.098c0.076,0,0.11,0.085,0.11,0.168
			c0,0.084-0.036,0.173-0.104,0.173c0,0-0.076,0-0.101,0c0-0.03,0-0.311,0-0.341C16.789,13.098,16.859,13.098,16.859,13.098z
			 M17.309,12.943c-0.057,0.06-0.09,0.146-0.09,0.235c0,0.008,0.001,0.017,0.001,0.025c0.008,0.133,0.089,0.288,0.292,0.295
			c0.264-0.009,0.294-0.236,0.297-0.307c0.006-0.097-0.019-0.181-0.075-0.24c-0.053-0.057-0.129-0.088-0.215-0.088
			C17.437,12.86,17.364,12.888,17.309,12.943z M17.203,13.205L17.203,13.205L17.203,13.205z M17.519,13.011
			c0.092,0,0.137,0.058,0.137,0.175c0,0.082-0.036,0.169-0.137,0.169c-0.12,0-0.146-0.104-0.146-0.192
			C17.383,13.06,17.431,13.011,17.519,13.011z M18.471,12.834h-0.185c0,0-0.071,0.314-0.095,0.413
			c-0.024-0.099-0.09-0.413-0.09-0.413h-0.206v0.61h0.152c0,0,0-0.224,0-0.358c0.03,0.136,0.069,0.358,0.069,0.358h0.151
			c0,0,0.04-0.223,0.069-0.358c0,0.135,0,0.358,0,0.358h0.152v-0.61H18.471z M17.024,14.214h-0.141v0.61h0.158v-0.61H17.024z
			 M17.682,14.138h-0.135c0,0,0,0.258,0,0.346c-0.048-0.079-0.212-0.346-0.212-0.346h-0.144v0.611h0.158c0,0,0-0.257,0-0.345
			c0.048,0.08,0.205,0.345,0.205,0.345h0.145v-0.611H17.682z M17.877,14.165c-0.057,0.058-0.09,0.144-0.09,0.233
			c0,0.008,0.001,0.018,0.001,0.025c0.008,0.133,0.089,0.289,0.293,0.295c0.209-0.006,0.289-0.162,0.296-0.307
			c0.006-0.098-0.019-0.181-0.075-0.239c-0.052-0.058-0.129-0.088-0.215-0.088C18.005,14.081,17.932,14.107,17.877,14.165z
			 M17.762,14.424 M18.087,14.23c0.093,0,0.137,0.058,0.137,0.175c0,0.082-0.036,0.169-0.137,0.169c-0.12,0-0.146-0.104-0.146-0.193
			C17.951,14.279,17.999,14.23,18.087,14.23z"/>
	</g>
</g>
</svg>
